#!OML:ASF H:\Dans Jumps\Project 1\Capture day 1\Session 1\subject.ASF
:FULLY-SPECIFIED
:DEGREES
202
root 0.130548 14.2579 -16.5168 22.4479 -1.73486 -0.962589
lowerback 25.8022 0.403945 -0.505576
upperback 10.7567 0.476967 1.98569
thorax -2.42235 0.157402 2.31361
lowerneck -18.845 0.927091 -1.03668
upperneck 13.4731 1.8605 -1.85986
head 7.22997 0.655105 -0.228064
rclavicle -1.68967e-014 8.54774e-015
rhumerus -58.8683 -18.2092 -55.7375
rradius 22.5208
rwrist 34.8955
rhand -19.281 -21.7846
rfingers 7.12502
rthumb 7.03392 -51.6478
lclavicle -1.68967e-014 8.54774e-015
lhumerus -51.3579 6.75495 74.2462
lradius 14.4965
lwrist 10.2236
lhand -27.8369 -7.13599
lfingers 7.12502
lthumb -1.22834 22.8402
rfemur -75.6089 -3.51668 19.4539
rtibia 79.9123
rfoot -25.4475 -4.84255
rtoes -2.62389
lfemur -74.7741 5.83634 -22.9104
ltibia 79.5617
lfoot -23.2382 13.059
ltoes -2.5949
203
root 0.128896 14.168 -16.541 22.6318 -1.72685 -0.97647
lowerback 26.1004 0.428189 -0.526131
upperback 10.753 0.504056 1.99085
thorax -2.56951 0.170588 2.3248
lowerneck -18.963 0.922876 -1.06131
upperneck 13.1893 1.85103 -1.82474
head 7.15583 0.655755 -0.213712
rclavicle -4.37326e-015 4.96962e-015
rhumerus -59.7716 -17.9878 -55.2779
rradius 22.5454
rwrist 34.7352
rhand -19.3631 -21.7422
rfingers 7.12502
rthumb 6.95469 -51.608
lclavicle -4.37326e-015 4.96962e-015
lhumerus -52.2119 6.88096 73.8074
lradius 14.4511
lwrist 10.466
lhand -27.5898 -7.15206
lfingers 7.12502
lthumb -0.98975 22.8254
rfemur -76.5457 -3.50049 19.4801
rtibia 80.8737
rfoot -25.6375 -4.99926
rtoes -2.83481
lfemur -75.7215 5.84767 -22.9551
ltibia 80.5455
lfoot -23.4308 13.1584
ltoes -2.67994
204
root 0.127342 14.0773 -16.5648 22.807 -1.72353 -0.990582
lowerback 26.4038 0.454262 -0.548715
upperback 10.7543 0.532685 1.99621
thorax -2.71312 0.18437 2.33682
lowerneck -19.0842 0.920465 -1.08293
upperneck 12.9067 1.8453 -1.80023
head 7.08284 0.657311 -0.202921
rclavicle -7.95139e-015 1.68967e-014
rhumerus -60.6841 -17.7474 -54.8156
rradius 22.5585
rwrist 34.6111
rhand -19.4083 -21.699
rfingers 7.12502
rthumb 6.91097 -51.5662
lclavicle -7.95139e-015 1.68967e-014
lhumerus -53.0751 7.02249 73.3471
lradius 14.3843
lwrist 10.6508
lhand -27.1906 -7.13724
lfingers 7.12502
lthumb -0.604151 22.8417
rfemur -77.4737 -3.48124 19.5036
rtibia 81.8351
rfoot -25.8334 -5.14561
rtoes -3.00009
lfemur -76.6604 5.86106 -22.9998
ltibia 81.5271
lfoot -23.6201 13.261
ltoes -2.74929
205
root 0.125984 13.9861 -16.5885 22.9751 -1.72418 -1.0017
lowerback 26.7094 0.481319 -0.572147
upperback 10.762 0.561912 1.99966
thorax -2.85043 0.198357 2.34694
lowerneck -19.2108 0.918536 -1.10058
upperneck 12.6248 1.84146 -1.78763
head 7.01122 0.658811 -0.196456
rclavicle -3.37934e-015 -3.57812e-015
rhumerus -61.6138 -17.522 -54.3123
rradius 22.5466
rwrist 34.5871
rhand -19.4231 -21.6277
rfingers 7.12502
rthumb 6.89678 -51.4953
lclavicle -3.37934e-015 -3.57812e-015
lhumerus -53.941 7.18824 72.8504
lradius 14.2776
lwrist 10.6944
lhand -27.0489 -7.23689
lfingers 7.12502
lthumb -0.467312 22.7423
rfemur -78.3937 -3.4629 19.523
rtibia 82.7954
rfoot -26.0352 -5.28322
rtoes -3.12721
lfemur -77.5902 5.87077 -23.0463
ltibia 82.5041
lfoot -23.8066 13.3694
ltoes -2.80044
206
root 0.124772 13.8946 -16.612 23.1338 -1.72667 -1.00736
lowerback 27.0235 0.509709 -0.596634
upperback 10.7746 0.592184 2.00153
thorax -2.98571 0.212795 2.35551
lowerneck -19.3453 0.914589 -1.1163
upperneck 12.3452 1.83585 -1.78208
head 6.94177 0.658836 -0.192801
rclavicle -3.77691e-015 -5.76476e-015
rhumerus -62.5631 -17.3193 -53.7585
rradius 22.515
rwrist 34.656
rhand -19.3817 -21.5263
rfingers 7.12502
rthumb 6.93667 -51.3927
lclavicle -3.77691e-015 -5.76476e-015
lhumerus -54.8064 7.39889 72.2866
lradius 14.1245
lwrist 10.531
lhand -27.1437 -7.43191
lfingers 7.12502
lthumb -0.558862 22.5471
rfemur -79.3032 -3.44736 19.5368
rtibia 83.7527
rfoot -26.2405 -5.41863
rtoes -3.21946
lfemur -78.5069 5.87213 -23.0958
ltibia 83.4741
lfoot -23.9921 13.4859
ltoes -2.838
207
root 0.123669 13.8031 -16.6354 23.2825 -1.72821 -1.00815
lowerback 27.3489 0.537497 -0.620052
upperback 10.7913 0.621604 2.00177
thorax -3.12137 0.226846 2.36179
lowerneck -19.4816 0.907165 -1.13513
upperneck 12.0644 1.82659 -1.77738
head 6.87222 0.656904 -0.189354
rclavicle 2.38542e-015 -3.57812e-015
rhumerus -63.5313 -17.1494 -53.1398
rradius 22.4579
rwrist 34.819
rhand -19.2817 -21.4093
rfingers 7.12502
rthumb 7.03327 -51.2724
lclavicle 2.38542e-015 -3.57812e-015
lhumerus -55.6803 7.61709 71.6913
lradius 13.9434
lwrist 10.1841
lhand -27.2401 -7.62626
lfingers 7.12502
lthumb -0.651961 22.3525
rfemur -80.1998 -3.43701 19.5461
rtibia 84.7056
rfoot -26.4514 -5.54352
rtoes -3.24576
lfemur -79.4079 5.86313 -23.1465
ltibia 84.4343
lfoot -24.1774 13.6108
ltoes -2.86106
208
root 0.122485 13.7118 -16.6586 23.4214 -1.72176 -1.00152
lowerback 27.6874 0.562984 -0.641238
upperback 10.8118 0.64843 2.00074
thorax -3.25816 0.239718 2.36602
lowerneck -19.6176 0.893308 -1.15975
upperneck 11.7795 1.80912 -1.76621
head 6.80112 0.65143 -0.183827
rclavicle 3.77691e-015 1.25234e-014
rhumerus -64.5132 -17.0101 -52.4679
rradius 22.3779
rwrist 35.0332
rhand -19.156 -21.3039
rfingers 7.12502
rthumb 7.15453 -51.163
lclavicle 3.77691e-015 1.25234e-014
lhumerus -56.5596 7.80341 71.107
lradius 13.7542
lwrist 9.72016
lhand -27.3283 -7.79525
lfingers 7.12502
lthumb -0.737165 22.1832
rfemur -81.0825 -3.43598 19.5504
rtibia 85.6512
rfoot -26.6626 -5.66742
rtoes -3.22816
lfemur -80.2927 5.8397 -23.2002
ltibia 85.3815
lfoot -24.3603 13.7404
ltoes -2.87483
209
root 0.121059 13.6207 -16.6819 23.5514 -1.70823 -0.988218
lowerback 28.0389 0.588122 -0.664911
upperback 10.8355 0.674125 2.00116
thorax -3.39676 0.251951 2.37348
lowerneck -19.7508 0.872366 -1.1946
upperneck 11.4908 1.7831 -1.74437
head 6.72813 0.642439 -0.174195
rclavicle -5.96354e-016 5.96354e-015
rhumerus -65.4982 -16.8898 -51.7596
rradius 22.2702
rwrist 35.2573
rhand -19.0173 -21.2456
rfingers 7.12502
rthumb 7.28844 -51.1001
lclavicle -5.96354e-016 5.96354e-015
lhumerus -57.4381 7.98494 70.5115
lradius 13.543
lwrist 9.14329
lhand -27.4333 -7.93342
lfingers 7.12502
lthumb -0.838572 22.0447
rfemur -81.9514 -3.44241 19.5493
rtibia 86.5883
rfoot -26.8732 -5.78467
rtoes -3.15772
lfemur -81.1623 5.80594 -23.2574
ltibia 86.3148
lfoot -24.5389 13.8724
ltoes -2.89326
210
root 0.119379 13.5298 -16.7048 23.6735 -1.68732 -0.972914
lowerback 28.3979 0.612158 -0.688067
upperback 10.8632 0.698538 2.00452
thorax -3.53366 0.263469 2.38415
lowerneck -19.8781 0.846177 -1.23753
upperneck 11.2005 1.75102 -1.71511
head 6.6535 0.63092 -0.161582
rclavicle -7.95139e-015 -1.16289e-014
rhumerus -66.4794 -16.7808 -51.0277
rradius 22.1352
rwrist 35.4805
rhand -18.9054 -21.2373
rfingers 7.12502
rthumb 7.39648 -51.088
lclavicle -7.95139e-015 -1.16289e-014
lhumerus -58.3125 8.13817 69.9381
lradius 13.3268
lwrist 8.55113
lhand -27.5389 -8.03585
lfingers 7.12502
lthumb -0.940528 21.9418
rfemur -82.8054 -3.4547 19.5474
rtibia 87.5148
rfoot -27.0807 -5.89357
rtoes -3.05382
lfemur -82.0166 5.76434 -23.3131
ltibia 87.2346
lfoot -24.7122 14.0067
ltoes -2.91846
211
root 0.117495 13.4392 -16.7275 23.7882 -1.65942 -0.955882
lowerback 28.7639 0.635046 -0.71073
upperback 10.8942 0.721631 2.01071
thorax -3.66945 0.27427 2.39794
lowerneck -20.0033 0.817581 -1.2812
upperneck 10.9146 1.71624 -1.68631
head 6.57997 0.617994 -0.149328
rclavicle 9.74045e-015 1.14301e-014
rhumerus -67.4529 -16.6649 -50.2984
rradius 21.9789
rwrist 35.6901
rhand -18.8411 -21.2914
rfingers 7.12502
rthumb 7.45851 -51.1399
lclavicle 9.74045e-015 1.14301e-014
lhumerus -59.1733 8.2979 69.3498
lradius 13.0886
lwrist 7.94939
lhand -27.625 -8.10006
lfingers 7.12502
lthumb -1.02374 21.8772
rfemur -83.6457 -3.47268 19.5458
rtibia 88.4294
rfoot -27.2803 -5.99893
rtoes -2.95773
lfemur -82.8577 5.71616 -23.3664
ltibia 88.1418
lfoot -24.8806 14.1384
ltoes -2.94829
212
root 0.115543 13.3487 -16.7498 23.8962 -1.62697 -0.94606
lowerback 29.136 0.657957 -0.727273
upperback 10.9263 0.74649 2.02259
thorax -3.80603 0.285891 2.41384
lowerneck -20.1178 0.788437 -1.3224
upperneck 10.6327 1.68154 -1.66667
head 6.5062 0.604408 -0.140479
rclavicle -3.77691e-015 -1.25234e-014
rhumerus -68.4125 -16.5284 -49.5916
rradius 21.8067
rwrist 35.8905
rhand -18.8222 -21.3981
rfingers 7.12502
rthumb 7.47677 -51.2459
lclavicle -3.77691e-015 -1.25234e-014
lhumerus -60.0237 8.43347 68.785
lradius 12.8499
lwrist 7.43177
lhand -27.6677 -8.12641
lfingers 7.12502
lthumb -1.06499 21.8507
rfemur -84.4717 -3.49025 19.5528
rtibia 89.3288
rfoot -27.4689 -6.10442
rtoes -2.89327
lfemur -83.6877 5.66697 -23.4081
ltibia 89.038
lfoot -25.0408 14.2666
ltoes -2.98714
213
root 0.113721 13.259 -16.7716 23.9917 -1.59384 -0.947323
lowerback 29.5188 0.680932 -0.732124
upperback 10.9621 0.774427 2.03748
thorax -3.94282 0.299066 2.42528
lowerneck -20.2249 0.762716 -1.35182
upperneck 10.353 1.65117 -1.66586
head 6.43229 0.591754 -0.139162
rclavicle -1.19271e-015 4.96962e-015
rhumerus -69.3582 -16.3919 -48.8837
rradius 21.6123
rwrist 36.1244
rhand -18.8346 -21.5252
rfingers 7.12502
rthumb 7.46484 -51.3735
lclavicle -1.19271e-015 4.96962e-015
lhumerus -60.8616 8.57796 68.1961
lradius 12.607
lwrist 6.9626
lhand -27.6123 -8.09662
lfingers 7.12502
lthumb -1.0115 21.8807
rfemur -85.2725 -3.50428 19.5716
rtibia 90.2091
rfoot -27.6471 -6.20892
rtoes -2.86966
lfemur -84.4966 5.62252 -23.4354
ltibia 89.9214
lfoot -25.1947 14.39
ltoes -3.02505
